<svg width="496" height="496" xmlns="http://www.w3.org/2000/svg" xml:space="preserve" version="1.1">

 <g>
  <title>Layer 1</title>
  <g id="svg_1">
   <rect id="svg_2" fill="#E56565" height="112" width="16" y="240" x="272"/>
   <rect id="svg_3" fill="#E56565" height="112" width="16" y="240" x="208"/>
   <path id="svg_4" fill="#E56565" d="m368,304l-32,0c-13.232,0 -24,-10.768 -24,-24l0,-48l16,0l0,48c0,4.416 3.584,8 8,8l32,0l0,16z"/>
   <path id="svg_5" fill="#E56565" d="m160,304l-32,0l0,-16l32,0c4.416,0 8,-3.584 8,-8l0,-48l16,0l0,48c0,13.232 -10.768,24 -24,24z"/>
   <rect id="svg_6" fill="#E56565" height="16" width="16" y="368" x="272"/>
   <rect id="svg_7" fill="#E56565" height="16" width="16" y="368" x="208"/>
   <rect id="svg_8" fill="#E56565" height="16" width="16" y="288" x="384"/>
   <rect id="svg_9" fill="#E56565" height="16" width="16" y="288" x="96"/>
  </g>
  <path id="svg_10" fill="#FFCB57" d="m360,104c0,-11.848 -6.44,-22.192 -16.008,-27.728l-2.432,-0.064c1.56,-3.76 2.44,-7.88 2.44,-12.208c0,-17.672 -14.328,-32 -32,-32l-1.128,0c-3.568,-13.776 -15.976,-24 -30.872,-24s-27.304,10.224 -30.872,24l-2.264,0c-3.56,-13.776 -15.968,-24 -30.864,-24s-27.304,10.224 -30.872,24l-1.128,0c-17.672,0 -32,14.328 -32,32c0,4.304 0.88,8.4 2.416,12.144l-2.408,0.128c-9.568,5.536 -16.008,15.88 -16.008,27.728c0,12.936 7.712,24.016 18.752,29.056c-1.696,3.296 -2.752,6.976 -2.752,10.944c0,10.448 6.68,19.336 16,22.632l2.256,-3.336c-1.352,4.016 -2.256,8.24 -2.256,12.704c0,22.088 17.912,40 40,40s40,-17.912 40,-40c0,22.088 17.912,40 40,40s40,-17.912 40,-40c0,-3.24 -0.488,-6.344 -1.216,-9.352l1.216,-0.016c9.32,-3.296 16,-12.184 16,-22.632c0,-3.968 -1.056,-7.648 -2.752,-10.944c11.04,-5.04 18.752,-16.12 18.752,-29.056z"/>
  <g id="svg_11">
   <path stroke="#000000" id="svg_12" fill="#ffffff" d="m336,416l0,16l144,0l0,24c0,13.232 -10.768,24 -24,24l-416,0c-13.232,0 -24,-10.768 -24,-24l0,-24l144,0l0,-16l-160,0l0,40c0,22.056 17.944,40 40,40l416,0c22.056,0 40,-17.944 40,-40l0,-40l-160,0z"/>
   <path stroke="#000000" id="svg_13" fill="#ffffff" d="m176,440c0,13.232 10.768,24 24,24l96,0c13.232,0 24,-10.768 24,-24l0,-24l-144,0l0,24zm16,-8l112,0l0,8c0,4.416 -3.584,8 -8,8l-96,0c-4.416,0 -8,-3.584 -8,-8l0,-8z"/>
   <path stroke="#000000" id="svg_14" fill="#ffffff" d="m32,144c0,-13.232 10.768,-24 24,-24l56,0l0,-16l-56,0c-22.056,0 -40,17.944 -40,40l0,256l16,0l0,-256z"/>
   <path stroke="#000000" id="svg_15" fill="#ffffff" d="m464,144l0,256l16,0l0,-256c0,-22.056 -17.944,-40 -40,-40l-56,0l0,16l56,0c13.232,0 24,10.768 24,24z"/>
   <path stroke="#000000" id="svg_16" fill="#ffffff" d="m48,152l0,248l16,0l0,-248l64,0l0,-16l-64,0c-8.824,0 -16,7.176 -16,16z"/>
   <path stroke="#000000" id="svg_17" fill="#ffffff" d="m448,400l0,-248c0,-8.824 -7.176,-16 -16,-16l-64,0l0,16l64,0l0,248l16,0z"/>
   <path stroke="#020202" id="svg_18" fill="#ffcb57" d="m144.912,136.584c-0.608,2.432 -0.912,4.912 -0.912,7.416c0,11.624 6.344,22.176 16.216,27.792c-0.128,1.392 -0.216,2.784 -0.216,4.208c0,26.472 21.528,48 48,48c16.688,0 31.392,-8.568 40,-21.52c8.608,12.96 23.312,21.52 40,21.52c26.472,0 48,-21.528 48,-48c0,-1.424 -0.088,-2.816 -0.216,-4.208c9.872,-5.616 16.216,-16.168 16.216,-27.792c0,-2.504 -0.304,-4.984 -0.912,-7.416c10.456,-7.416 16.912,-19.544 16.912,-32.584c0,-12.928 -6.36,-25.008 -16.76,-32.472c0.464,-2.44 0.76,-4.952 0.76,-7.528c0,-20.392 -15.392,-37.072 -35.136,-39.504c-6.072,-14.376 -20.304,-24.496 -36.864,-24.496c-13.128,0 -24.704,6.448 -32,16.248c-7.296,-9.8 -18.872,-16.248 -32,-16.248c-16.56,0 -30.792,10.12 -36.864,24.496c-19.744,2.432 -35.136,19.112 -35.136,39.504c0,2.576 0.296,5.088 0.76,7.528c-10.4,7.464 -16.76,19.544 -16.76,32.472c0,13.04 6.456,25.168 16.912,32.584zm135.088,-120.584c13.232,0 24,10.768 24,24s-10.768,24 -24,24l0,16c21.568,0 39.08,-17.192 39.856,-38.568c9.368,3.272 16.144,12.096 16.144,22.568c0,13.232 -10.768,24 -24,24l0,16c13.544,0 25.496,-6.808 32.736,-17.144c4.56,4.472 7.264,10.624 7.264,17.144c0,9.328 -5.528,17.872 -14.088,21.784l-7.632,3.496l3.848,7.464c1.248,2.384 1.872,4.824 1.872,7.256c0,4.328 -1.888,8.248 -4.816,11.184c-7.768,-16.056 -24.184,-27.184 -43.184,-27.184l0,16c17.648,0 32,14.352 32,32s-14.352,32 -32,32s-32,-14.352 -32,-32l0,-136c0,-13.232 10.768,-24 24,-24zm-128.736,70.856c7.24,10.336 19.192,17.144 32.736,17.144l0,-16c-13.232,0 -24,-10.768 -24,-24c0,-10.472 6.776,-19.296 16.144,-22.568c0.776,21.376 18.288,38.568 39.856,38.568l0,-16c-13.232,0 -24,-10.768 -24,-24s10.768,-24 24,-24s24,10.768 24,24l0,136c0,17.648 -14.352,32 -32,32s-32,-14.352 -32,-32s14.352,-32 32,-32l0,-16c-19,0 -35.416,11.128 -43.184,27.184c-2.928,-2.936 -4.816,-6.856 -4.816,-11.184c0,-2.432 0.624,-4.872 1.864,-7.264l3.848,-7.464l-7.632,-3.496c-8.552,-3.904 -14.08,-12.448 -14.08,-21.776c0,-6.52 2.704,-12.672 7.264,-17.144z"/>
   <rect stroke="#000000" id="svg_19" fill="#ffffff" height="16" width="16" y="448" x="32"/>
   <rect stroke="#000000" id="svg_20" fill="#ffffff" height="16" width="16" y="448" x="64"/>
   <rect stroke="#000000" id="svg_21" fill="#ffffff" height="16" width="16" y="448" x="96"/>
  </g>
  <g id="svg_22"/>
  <g id="svg_23"/>
  <g id="svg_24"/>
  <g id="svg_25"/>
  <g id="svg_26"/>
  <g id="svg_27"/>
  <g id="svg_28"/>
  <g id="svg_29"/>
  <g id="svg_30"/>
  <g id="svg_31"/>
  <g id="svg_32"/>
  <g id="svg_33"/>
  <g id="svg_34"/>
  <g id="svg_35"/>
  <g id="svg_36"/>
 </g>
</svg>